<?xml version="1.0" encoding="utf-8"?>
<!-- Generator: Adobe Illustrator 18.1.1, SVG Export Plug-In . SVG Version: 6.00 Build 0)  -->
<svg version="1.1" xmlns="http://www.w3.org/2000/svg" xmlns:xlink="http://www.w3.org/1999/xlink" x="0px" y="0px"
	 viewBox="0 0 550.7 498.9" enable-background="new 0 0 550.7 498.9" xml:space="preserve">
<g id="Layer_1" display="none">
</g>
<g id="Layer_1_copy" display="none">
</g>
<g id="Layer_1_copy_2" display="none">
</g>
<g id="Layer_1_copy_3">
	<g>
		<path fill="#FFFFFF" stroke="#FFFFFF" stroke-miterlimit="10" d="M222.4,328c-6.7,0-12.2,5.5-12.2,12.2s5.5,12.2,12.2,12.2
			s12.2-5.5,12.2-12.2S229.1,328,222.4,328z"/>
		<path fill="#FFFFFF" stroke="#FFFFFF" stroke-miterlimit="10" d="M319.5,328c-6.7,0-12.2,5.5-12.2,12.2s5.5,12.2,12.2,12.2
			s12.2-5.5,12.2-12.2S326.2,328,319.5,328z"/>
		<path fill="#FFFFFF" stroke="#FFFFFF" stroke-miterlimit="10" d="M67.4,339.7c-6.7,0-12.2,5.5-12.2,12.2c0,6.7,5.5,12.2,12.2,12.2
			c6.7,0,12.2-5.5,12.2-12.2C79.6,345.1,74.2,339.7,67.4,339.7z"/>
		<path fill="#FFFFFF" stroke="#FFFFFF" stroke-miterlimit="10" d="M104.3,339.7c-6.7,0-12.2,5.5-12.2,12.2
			c0,6.7,5.5,12.2,12.2,12.2c6.7,0,12.2-5.5,12.2-12.2C116.5,345.1,111,339.7,104.3,339.7z"/>
		<path fill="#FFFFFF" stroke="#FFFFFF" stroke-miterlimit="10" d="M445.8,339.7c-6.7,0-12.2,5.5-12.2,12.2
			c0,6.7,5.5,12.2,12.2,12.2s12.2-5.5,12.2-12.2C458,345.1,452.5,339.7,445.8,339.7z"/>
		<path fill="#FFFFFF" stroke="#FFFFFF" stroke-miterlimit="10" d="M482.7,339.7c-6.7,0-12.2,5.5-12.2,12.2
			c0,6.7,5.5,12.2,12.2,12.2s12.2-5.5,12.2-12.2C494.9,345.1,489.4,339.7,482.7,339.7z"/>
		<path fill="#FFFFFF" stroke="#FFFFFF" stroke-miterlimit="10" d="M166.8,430.9c-6.7,0-12.2,5.5-12.2,12.2s5.5,12.2,12.2,12.2
			c6.7,0,12.2-5.5,12.2-12.2S173.6,430.9,166.8,430.9z"/>
		<path fill="#FFFFFF" stroke="#FFFFFF" stroke-miterlimit="10" d="M127.9,430.9c-6.7,0-12.2,5.5-12.2,12.2s5.5,12.2,12.2,12.2
			c6.7,0,12.2-5.5,12.2-12.2S134.6,430.9,127.9,430.9z"/>
		<path fill="#FFFFFF" stroke="#FFFFFF" stroke-miterlimit="10" d="M203.7,430.9c-6.7,0-12.2,5.5-12.2,12.2s5.5,12.2,12.2,12.2
			c6.7,0,12.2-5.5,12.2-12.2S210.4,430.9,203.7,430.9z"/>
		
			<rect x="150.1" y="377.1" transform="matrix(-0.7071 -0.7071 0.7071 -0.7071 4.8605 786.7457)" fill="#FFFFFF" stroke="#FFFFFF" stroke-miterlimit="10" width="30.6" height="30.6"/>
		<path fill="#FFFFFF" stroke="#FFFFFF" stroke-miterlimit="10" d="M349.1,430.9c-6.7,0-12.2,5.5-12.2,12.2s5.5,12.2,12.2,12.2
			s12.2-5.5,12.2-12.2S355.8,430.9,349.1,430.9z"/>
		<path fill="#FFFFFF" stroke="#FFFFFF" stroke-miterlimit="10" d="M385.9,430.9c-6.7,0-12.2,5.5-12.2,12.2s5.5,12.2,12.2,12.2
			s12.2-5.5,12.2-12.2S392.7,430.9,385.9,430.9z"/>
		<path fill="#FFFFFF" stroke="#FFFFFF" stroke-miterlimit="10" d="M420.3,430.9c-6.7,0-12.2,5.5-12.2,12.2s5.5,12.2,12.2,12.2
			c6.7,0,12.2-5.5,12.2-12.2S427,430.9,420.3,430.9z"/>
		
			<rect x="371.3" y="377.1" transform="matrix(0.7071 0.7071 -0.7071 0.7071 390.6515 -158.4138)" fill="#FFFFFF" stroke="#FFFFFF" stroke-miterlimit="10" width="30.6" height="30.6"/>
		
			<rect x="213" y="291" transform="matrix(-0.7071 -0.7071 0.7071 -0.7071 167.2346 669.8823)" fill="#FFFFFF" stroke="#FFFFFF" stroke-miterlimit="10" width="18.6" height="18.6"/>
		<polygon fill="#FFFFFF" stroke="#FFFFFF" stroke-miterlimit="10" points="306.3,300.3 319.5,313.5 332.7,300.3 319.5,287.1 		"/>
		<path fill="#FFFFFF" stroke="#FFFFFF" stroke-miterlimit="10" d="M526.3,222.6c-7.3-58.3-29.3-97.9-65.6-117.8
			c-31.1-17-73.2-19.2-121.9-6.2c-15.7,4.2-29.6,9.2-40.5,13.7c-3.6,0.4-6.9,0.9-9.7,1.3c-0.1,0-0.1-0.1-0.2-0.1l-8.2-8.2V55.9
			c13.5-1.9,23.9-13.6,23.9-27.6c0-15.4-12.5-27.9-27.9-27.9S248.3,13,248.3,28.4c0,14,10.4,25.6,23.9,27.6v45.9l-12.5,12.5
			c0,0,0,0,0,0c-2.2-0.3-4.7-0.6-7.3-0.9c-10.9-4.5-24.8-9.5-40.5-13.7C163.2,86.8,121,88.9,90,106c-36.2,19.9-58.3,59.5-65.6,117.8
			c-13.5,1.9-23.9,13.6-23.9,27.6c0,15.4,12.5,27.9,27.9,27.9s27.9-12.5,27.9-27.9c0-14-10.3-25.6-23.8-27.6
			c7.1-55.1,27.7-92.3,61.3-110.8c36.9-20.2,83.3-14.2,115.8-5.6c5.3,1.4,10.5,2.9,15.3,4.5c-4.1,0-8.3,0.2-12.6,0.5
			c-41.2,2.9-71.6,18.9-88.4,46.5c-1.5-0.4-3.1-0.6-4.7-0.6c-10.7,0-19.4,8.7-19.4,19.4c0,6.4,3.1,12.1,8,15.6
			C92.3,231.8,86.3,263.2,84,282l-19.1,19.1l21.6,21.6l21.6-21.6l-16.4-16.4c2.1-18,7.9-49.5,23.4-88.1c1.3,0.3,2.7,0.5,4.1,0.5
			c10.7,0,19.4-8.7,19.4-19.4c0-6.2-3-11.8-7.5-15.3c15.6-25.1,43-39.2,81.6-42c4.4-0.3,8.7-0.5,12.8-0.5c-8.5,2.8-17.4,7.3-26,14.5
			c-32.2,26.8-46.3,79.2-41.9,155.8c-13.3,2.1-23.6,13.6-23.6,27.5c0,15.4,12.5,27.9,27.9,27.9c15.4,0,27.9-12.5,27.9-27.9
			c0-14.1-10.5-25.8-24.2-27.6c-2.4-40.5,0.6-74.4,8.8-100.7c6.6-21.3,16.8-37.7,30.1-48.8c15.1-12.6,31.7-16.2,44-16.8
			c-21.2,25.8-25.4,83.7-26.3,106.9c-10.7,0-19.3,8.7-19.3,19.4c0,10.7,8.7,19.4,19.4,19.4s19.4-8.7,19.4-19.4
			c0-7.9-4.7-14.7-11.5-17.7c0.8-22.3,5-84.8,27.3-106.5c0,0,0,0,0,0l14.7,14.7v302.4c-13.5,1.9-23.9,13.6-23.9,27.6
			c0,15.4,12.5,27.9,27.9,27.9s27.9-12.5,27.9-27.9c0-14-10.4-25.6-23.9-27.6V137.1l12.1-12.1c23,18.3,22.9,72,22.9,100.4
			c0,2.1,0,4,0,5.8c-8.6,2-15,9.7-15,18.9c0,10.7,8.7,19.4,19.4,19.4c10.7,0,19.4-8.7,19.4-19.4c0-9.5-6.8-17.4-15.8-19.1
			c0-1.7,0-3.6,0-5.6c0.1-28.2,0.2-79.7-21.6-102.9c12.3,0.5,29.2,4,44.5,16.7c13.3,11.1,23.5,27.5,30.1,48.8
			c8.2,26.3,11.2,60.2,8.8,100.8c-13.6,1.8-24.2,13.5-24.2,27.6c0,15.4,12.5,27.9,27.9,27.9c15.4,0,27.9-12.5,27.9-27.9
			c0-13.9-10.2-25.5-23.6-27.5c4.4-76.6-9.7-129-41.9-155.8c-8.6-7.1-17.5-11.6-26-14.5c4.1,0,8.3,0.2,12.6,0.5
			c38.7,2.7,66.2,16.8,81.8,42c-4.6,3.6-7.5,9.1-7.5,15.3c0,10.7,8.7,19.4,19.4,19.4c1.4,0,2.8-0.2,4.1-0.5
			c11,27.4,16.9,50.8,20.1,67c1.6,8.2,2.6,15.3,3.3,21l-16.4,16.4l21.6,21.6l21.6-21.6l-19.1-19.1c-2.3-18.8-8.3-50.2-23.8-88.6
			c4.8-3.5,8-9.2,8-15.6c0-10.7-8.7-19.4-19.4-19.4c-1.6,0-3.2,0.2-4.7,0.6c-16.9-27.5-47.2-43.6-88.4-46.5
			c-4.2-0.3-8.4-0.4-12.4-0.5c37.6-12,90.1-21.3,130.9,1c33.7,18.5,54.3,55.7,61.4,110.8c-13.4,2-23.8,13.6-23.8,27.6
			c0,15.4,12.5,27.9,27.9,27.9c15.4,0,27.9-12.5,27.9-27.9C550.2,236.1,539.8,224.5,526.3,222.6z"/>
	</g>
</g>
</svg>
